<svg width="704" height="352" viewBox="0 0 704 352" fill="none" xmlns="http://www.w3.org/2000/svg">
<path d="M97.8594 352H0.935547V0.4375H97.8594V167.918C127.807 144.969 155.721 119.497 181.6 91.502C207.641 63.5072 230.021 33.071 248.738 0.193359H314.9C297.648 29.653 277.872 57.1595 255.574 82.7129C233.276 108.266 209.025 131.948 182.82 153.758L323.201 352H222.127L116.414 202.586C113.322 204.702 110.229 206.736 107.137 208.689C104.207 210.643 101.115 212.596 97.8594 214.549V352ZM703.084 175.73C703.084 192.82 700.805 209.096 696.248 224.559C691.691 239.858 685.262 254.018 676.961 267.039C668.823 280.06 659.057 291.86 647.664 302.439C636.271 312.856 623.657 321.727 609.822 329.051C596.15 336.375 581.421 342.072 565.633 346.141C550.008 350.047 533.895 352 517.293 352H362.264V0.4375H517.293C533.895 0.4375 550.008 2.39062 565.633 6.29688C581.258 10.2031 595.906 15.8184 609.578 23.1426C623.413 30.304 636.027 39.0931 647.42 49.5098C658.976 59.9264 668.823 71.6452 676.961 84.666C685.262 97.5241 691.691 111.684 696.248 127.146C700.805 142.446 703.084 158.641 703.084 175.73ZM604.695 175.73C604.695 156.688 602.335 138.621 597.615 121.531C593.058 104.279 585.896 89.1419 576.131 76.1211C566.365 63.1003 553.914 52.765 538.777 45.1152C523.803 37.4655 505.818 33.6406 484.822 33.6406H459.188V317.82H484.822C505.493 317.82 523.315 313.995 538.289 306.346C553.426 298.533 565.877 288.117 575.643 275.096C585.571 261.912 592.895 246.775 597.615 229.686C602.335 212.596 604.695 194.611 604.695 175.73Z" fill="white"/>
</svg>
